<?xml version="1.0" encoding="iso-8859-1" standalone="no"?> 
<?xml-stylesheet href="BNF9.css" type="text/css"?> 
<svg xmlns="http://www.w3.org/2000/svg" xmlns:xlink="http://www.w3.org/1999/xlink" width="240.38412pt" height="207.39859pt" viewBox="-0.2 118.08252 240.38412 207.39859 "> 
<g transform="translate(0, 325.48111 ) scale(1,-1) translate(0,-118.08252 )"> 

<g>
 <g stroke="rgb(0.0%,0.0%,0.0%)">
 <g fill="rgb(0.0%,0.0%,0.0%)">
 <g stroke-width="0.4pt">
 <g>
 </g>
 <g>
 <g>
 <g>
 <g fill="rgb(100.0%,100.0%,100.0%)">
 <path d=" M  0.0 118.28252 L  239.98413 118.28252 L  239.98413 325.28111 L  0.0 325.28111 Z  " style="stroke:none"/>
 </g>
 </g>
 <g>
 <g>
 <g stroke-width="0.4pt">
 <g stroke="rgb(75.0%,75.0%,75.0%)">
 <g fill="rgb(75.0%,75.0%,75.0%)">
 <g stroke-dasharray="none" stroke-dashoffset="0.0pt">
 <g stroke="rgb(89.99939%,89.99939%,89.99939%)">
 <g fill="rgb(89.99939%,89.99939%,89.99939%)">
 <path d=" M  0.0 118.28252 L  0.0 325.28111 M  17.14172 118.28252 L  17.14172 325.28111 M  34.28345 118.28252 L  34.28345 325.28111 M  51.42517 118.28252 L  51.42517 325.28111 M  68.5669 118.28252 L  68.5669 325.28111 M  85.70862 118.28252 L  85.70862 325.28111 M  102.85034 118.28252 L  102.85034 325.28111 M  119.99207 118.28252 L  119.99207 325.28111 M  137.13379 118.28252 L  137.13379 325.28111 M  154.27551 118.28252 L  154.27551 325.28111 M  171.41724 118.28252 L  171.41724 325.28111 M  188.55896 118.28252 L  188.55896 325.28111 M  205.70068 118.28252 L  205.70068 325.28111 M  222.8424 118.28252 L  222.8424 325.28111 M  239.98413 118.28252 L  239.98413 325.28111  " style="fill:none"/>
 </g>
 </g>
 </g>
 </g>
 </g>
 </g>
 </g>
 <g>
 <g stroke-width="0.4pt">
 <g stroke="rgb(75.0%,75.0%,75.0%)">
 <g fill="rgb(75.0%,75.0%,75.0%)">
 <g stroke-dasharray="none" stroke-dashoffset="0.0pt">
 <g stroke="rgb(89.99939%,89.99939%,89.99939%)">
 <g fill="rgb(89.99939%,89.99939%,89.99939%)">
 <path d=" M  17.14172 118.28252 L  17.14172 325.28111 M  51.42517 118.28252 L  51.42517 325.28111 M  85.70862 118.28252 L  85.70862 325.28111 M  154.27551 118.28252 L  154.27551 325.28111 M  188.55896 118.28252 L  188.55896 325.28111 M  222.8424 118.28252 L  222.8424 325.28111  " style="fill:none"/>
 </g>
 </g>
 </g>
 </g>
 </g>
 </g>
 </g>
 </g>
 <g>
 <g>
 <g stroke-width="0.4pt">
 <g stroke="rgb(75.0%,75.0%,75.0%)">
 <g fill="rgb(75.0%,75.0%,75.0%)">
 <g stroke-dasharray="none" stroke-dashoffset="0.0pt">
 <g stroke="rgb(89.99939%,89.99939%,89.99939%)">
 <g fill="rgb(89.99939%,89.99939%,89.99939%)">
 <path d=" M  0.0 118.28252 L  239.98413 118.28252 M  0.0 133.06813 L  239.98413 133.06813 M  0.0 147.85374 L  239.98413 147.85374 M  0.0 162.63936 L  239.98413 162.63936 M  0.0 177.42497 L  239.98413 177.42497 M  0.0 192.21059 L  239.98413 192.21059 M  0.0 206.9962 L  239.98413 206.9962 M  0.0 221.78181 L  239.98413 221.78181 M  0.0 236.56743 L  239.98413 236.56743 M  0.0 251.35304 L  239.98413 251.35304 M  0.0 266.13866 L  239.98413 266.13866 M  0.0 280.92427 L  239.98413 280.92427 M  0.0 295.70988 L  239.98413 295.70988 M  0.0 310.4955 L  239.98413 310.4955 M  0.0 325.28111 L  239.98413 325.28111  " style="fill:none"/>
 </g>
 </g>
 </g>
 </g>
 </g>
 </g>
 </g>
 <g>
 <g stroke-width="0.4pt">
 <g stroke="rgb(75.0%,75.0%,75.0%)">
 <g fill="rgb(75.0%,75.0%,75.0%)">
 <g stroke-dasharray="none" stroke-dashoffset="0.0pt">
 <g stroke="rgb(89.99939%,89.99939%,89.99939%)">
 <g fill="rgb(89.99939%,89.99939%,89.99939%)">
 <path d=" M  0.0 133.06813 L  239.98413 133.06813 M  0.0 162.63936 L  239.98413 162.63936 M  0.0 192.21059 L  239.98413 192.21059 M  0.0 251.35304 L  239.98413 251.35304 M  0.0 280.92427 L  239.98413 280.92427 M  0.0 310.4955 L  239.98413 310.4955  " style="fill:none"/>
 </g>
 </g>
 </g>
 </g>
 </g>
 </g>
 </g>
 </g>
 <g>
 <g>
 <g stroke-width="0.2pt">
 <g stroke="rgb(50.0%,50.0%,50.0%)">
 <g fill="rgb(50.0%,50.0%,50.0%)">
 <path d=" M  0.0 220.35886 L  0.0 223.20479 M  17.14172 220.35886 L  17.14172 223.20479 M  34.28345 220.35886 L  34.28345 223.20479 M  51.42517 220.35886 L  51.42517 223.20479 M  68.5669 220.35886 L  68.5669 223.20479 M  85.70862 220.35886 L  85.70862 223.20479 M  102.85034 220.35886 L  102.85034 223.20479 M  119.99207 220.35886 L  119.99207 223.20479 M  137.13379 220.35886 L  137.13379 223.20479 M  154.27551 220.35886 L  154.27551 223.20479 M  171.41724 220.35886 L  171.41724 223.20479 M  188.55896 220.35886 L  188.55896 223.20479 M  205.70068 220.35886 L  205.70068 223.20479 M  222.8424 220.35886 L  222.8424 223.20479 M  239.98413 220.35886 L  239.98413 223.20479  " style="fill:none"/>
 </g>
 </g>
 </g>
 </g>
 <g>
 <g stroke-width="0.2pt">
 <g stroke="rgb(50.0%,50.0%,50.0%)">
 <g fill="rgb(50.0%,50.0%,50.0%)">
 <path d=" M  17.14172 219.64758 L  17.14172 223.91605 M  51.42517 219.64758 L  51.42517 223.91605 M  85.70862 219.64758 L  85.70862 223.91605 M  154.27551 219.64758 L  154.27551 223.91605 M  188.55896 219.64758 L  188.55896 223.91605 M  222.8424 219.64758 L  222.8424 223.91605  " style="fill:none"/>
 </g>
 </g>
 </g>
 </g>
 </g>
 <g>
 <g>
 <g stroke-width="0.2pt">
 <g stroke="rgb(50.0%,50.0%,50.0%)">
 <g fill="rgb(50.0%,50.0%,50.0%)">
 <path d=" M  118.56932 118.28252 L  121.41481 118.28252 M  118.56932 133.06813 L  121.41481 133.06813 M  118.56932 147.85374 L  121.41481 147.85374 M  118.56932 162.63936 L  121.41481 162.63936 M  118.56932 177.42497 L  121.41481 177.42497 M  118.56932 192.21059 L  121.41481 192.21059 M  118.56932 206.9962 L  121.41481 206.9962 M  118.56932 221.78181 L  121.41481 221.78181 M  118.56932 236.56743 L  121.41481 236.56743 M  118.56932 251.35304 L  121.41481 251.35304 M  118.56932 266.13866 L  121.41481 266.13866 M  118.56932 280.92427 L  121.41481 280.92427 M  118.56932 295.70988 L  121.41481 295.70988 M  118.56932 310.4955 L  121.41481 310.4955 M  118.56932 325.28111 L  121.41481 325.28111  " style="fill:none"/>
 </g>
 </g>
 </g>
 </g>
 <g>
 <g stroke-width="0.2pt">
 <g stroke="rgb(50.0%,50.0%,50.0%)">
 <g fill="rgb(50.0%,50.0%,50.0%)">
 <path d=" M  117.85817 133.06813 L  122.12595 133.06813 M  117.85817 162.63936 L  122.12595 162.63936 M  117.85817 192.21059 L  122.12595 192.21059 M  117.85817 251.35304 L  122.12595 251.35304 M  117.85817 280.92427 L  122.12595 280.92427 M  117.85817 310.4955 L  122.12595 310.4955  " style="fill:none"/>
 </g>
 </g>
 </g>
 </g>
 </g>
 <path d=" M  1.99997 221.78181 L  237.98416 221.78181  " style="fill:none"/>
 <g>
 <g transform="matrix(-1.0,0.0,0.0,-1.0,1.99997,221.78181)">
 <g>
 <path d=" M  1.99997 0.0 L  -1.19998 1.59998 L  0.0 0.0 L  -1.19998 -1.59998  " style="stroke:none"/>
 </g>
  </g>
 </g>
 <g>
 <g transform="matrix(1.0,0.0,0.0,1.0,237.98416,221.78181)">
 <g>
 <path d=" M  1.99997 0.0 L  -1.19998 1.59998 L  0.0 0.0 L  -1.19998 -1.59998  " style="stroke:none"/>
 </g>
  </g>
 </g>
 <path d=" M  119.99207 120.28249 L  119.99207 323.28114  " style="fill:none"/>
 <g>
 <g transform="matrix(0.0,-1.0,1.0,0.0,119.99207,120.28249)">
 <g>
 <path d=" M  1.99997 0.0 L  -1.19998 1.59998 L  0.0 0.0 L  -1.19998 -1.59998  " style="stroke:none"/>
 </g>
  </g>
 </g>
 <g>
 <g transform="matrix(0.0,1.0,-1.0,0.0,119.99207,323.28114)">
 <g>
 <path d=" M  1.99997 0.0 L  -1.19998 1.59998 L  0.0 0.0 L  -1.19998 -1.59998  " style="stroke:none"/>
 </g>
  </g>
 </g>
 <g>
 <g>
 <g transform="matrix(1.0,0.0,0.0,1.0,9.82217,210.95906)">
 <g fill="rgb(0.0%,0.0%,0.0%)">
 <text style="stroke:none" transform="scale(1,-1) translate(7.31955,0)" text-anchor="middle"  font-size="10"> 
 &minus; 6</text> 
</g>
 </g>
 </g>
 </g>
 <g>
 <g>
 <g transform="matrix(1.0,0.0,0.0,1.0,44.10562,210.95906)">
 <g fill="rgb(0.0%,0.0%,0.0%)">
 <text style="stroke:none" transform="scale(1,-1) translate(7.31955,0)" text-anchor="middle"  font-size="10"> 
 &minus; 4</text> 
</g>
 </g>
 </g>
 </g>
 <g>
 <g>
 <g transform="matrix(1.0,0.0,0.0,1.0,78.38907,210.95906)">
 <g fill="rgb(0.0%,0.0%,0.0%)">
 <text style="stroke:none" transform="scale(1,-1) translate(7.31955,0)" text-anchor="middle"  font-size="10"> 
 &minus; 2</text> 
</g>
 </g>
 </g>
 </g>
 <g>
 <g>
 <g transform="matrix(1.0,0.0,0.0,1.0,152.15048,210.95906)">
 <g fill="rgb(0.0%,0.0%,0.0%)">
 <text style="stroke:none" transform="scale(1,-1) translate(2.12503,0)" text-anchor="middle"  font-size="10"> 
2</text> 
</g>
 </g>
 </g>
 </g>
 <g>
 <g>
 <g transform="matrix(1.0,0.0,0.0,1.0,186.43393,210.95906)">
 <g fill="rgb(0.0%,0.0%,0.0%)">
 <text style="stroke:none" transform="scale(1,-1) translate(2.12503,0)" text-anchor="middle"  font-size="10"> 
4</text> 
</g>
 </g>
 </g>
 </g>
 <g>
 <g>
 <g transform="matrix(1.0,0.0,0.0,1.0,220.71738,210.95906)">
 <g fill="rgb(0.0%,0.0%,0.0%)">
 <text style="stroke:none" transform="scale(1,-1) translate(2.12503,0)" text-anchor="middle"  font-size="10"> 
6</text> 
</g>
 </g>
 </g>
 </g>
 <g>
 <g>
 <g transform="matrix(1.0,0.0,0.0,1.0,101.58537,130.90704)">
 <g fill="rgb(0.0%,0.0%,0.0%)">
 <text style="stroke:none" transform="scale(1,-1) translate(7.31955,0)" text-anchor="middle"  font-size="10"> 
 &minus; 6</text> 
</g>
 </g>
 </g>
 </g>
 <g>
 <g>
 <g transform="matrix(1.0,0.0,0.0,1.0,101.58537,160.47827)">
 <g fill="rgb(0.0%,0.0%,0.0%)">
 <text style="stroke:none" transform="scale(1,-1) translate(7.31955,0)" text-anchor="middle"  font-size="10"> 
 &minus; 4</text> 
</g>
 </g>
 </g>
 </g>
 <g>
 <g>
 <g transform="matrix(1.0,0.0,0.0,1.0,101.58537,190.0495)">
 <g fill="rgb(0.0%,0.0%,0.0%)">
 <text style="stroke:none" transform="scale(1,-1) translate(7.31955,0)" text-anchor="middle"  font-size="10"> 
 &minus; 2</text> 
</g>
 </g>
 </g>
 </g>
 <g>
 <g>
 <g transform="matrix(1.0,0.0,0.0,1.0,111.97441,248.77527)">
 <g fill="rgb(0.0%,0.0%,0.0%)">
 <text style="stroke:none" transform="scale(1,-1) translate(2.12503,0)" text-anchor="middle"  font-size="10"> 
2</text> 
</g>
 </g>
 </g>
 </g>
 <g>
 <g>
 <g transform="matrix(1.0,0.0,0.0,1.0,111.97441,278.3465)">
 <g fill="rgb(0.0%,0.0%,0.0%)">
 <text style="stroke:none" transform="scale(1,-1) translate(2.12503,0)" text-anchor="middle"  font-size="10"> 
4</text> 
</g>
 </g>
 </g>
 </g>
 <g>
 <g>
 <g transform="matrix(1.0,0.0,0.0,1.0,111.97441,307.91772)">
 <g fill="rgb(0.0%,0.0%,0.0%)">
 <text style="stroke:none" transform="scale(1,-1) translate(2.12503,0)" text-anchor="middle"  font-size="10"> 
6</text> 
</g>
 </g>
 </g>
 </g>
 <clipPath id="pgfcp9"> <path d=" M  0.0 118.28252 L  239.98413 118.28252 L  239.98413 325.28111 L  0.0 325.28111 Z  "/>
</clipPath>
 <g clip-path="url(#pgfcp9)">
 <g>
 <path d=" M  0.0 413.9948 C  0.0 413.9948 7.22452 401.53175 9.99927 396.74501 C  12.77402 391.95827 17.2238 384.28198 19.99855 379.49524 C  22.7733 374.7085 27.22308 367.0322 29.99783 362.24545 C  32.77258 357.45871 37.22237 349.78242 39.99712 344.99568 C  42.77187 340.20894 47.22165 332.53265 49.9964 327.74591 C  52.77115 322.95917 57.22093 315.28282 59.99568 310.49608 C  62.77043 305.70934 67.2202 298.03305 69.99495 293.2463 C  72.7697 288.45956 77.21948 280.78326 79.99423 275.99652 C  82.76898 271.20978 87.21877 263.5335 89.99352 258.74675 C  92.76826 253.96 97.21805 246.2837 99.9928 241.49696 C  102.76755 236.71022 107.21733 229.03394 109.99208 224.2472 C  112.76683 219.46045 117.21661 211.78413 119.99136 206.99739 C  122.76611 202.21065 127.2159 194.53436 129.99065 189.74762 C  132.7654 184.96088 137.21518 177.28456 139.98993 172.49782 C  142.76468 167.71107 147.21445 160.03477 149.9892 155.24803 C  152.76395 150.46129 157.21373 142.785 159.98848 137.99826 C  162.76323 133.21152 167.21301 125.53522 169.98776 120.74847 C  172.76251 115.96173 177.2123 108.28545 179.98705 103.4987 C  182.7618 98.71196 187.21158 91.03568 189.98633 86.24893 C  192.76108 81.46219 197.21086 73.78589 199.98561 68.99915 C  202.76036 64.2124 207.21013 56.53612 209.98488 51.74937 C  212.75963 46.96263 217.20941 39.28633 219.98416 34.49959 C  222.75891 29.71284 227.2087 22.03651 229.98344 17.24977 C  232.7582 12.46303 239.98273 0.0 239.98273 0.0  " style="fill:none"/>
 <g>
 <g>
 <g transform="matrix(1.0,0.0,0.0,1.0,204.21663,-2.5)">
 <g fill="rgb(0.0%,0.0%,0.0%)">
 <text style="stroke:none" transform="scale(1,-1) translate(35.7661,0)" text-anchor="middle"  font-size="10"> 
y = (&minus;2) &lowast; x &minus; 1</text> 
</g>
 </g>
 </g>
 </g>
 </g>
 </g>
 </g>
 <g>
 <g>
 <g transform="matrix(1.0,0.0,0.0,1.0,230.78545,225.36201)">
 <g fill="rgb(0.0%,0.0%,0.0%)">
 <text style="stroke:none" transform="scale(1,-1) translate(2.85764,0)" text-anchor="middle"  font-size="10"> 
x</text> 
</g>
 </g>
 </g>
 </g>
 <g>
 <g>
 <g transform="matrix(1.0,0.0,0.0,1.0,123.54245,317.51685)">
 <g fill="rgb(0.0%,0.0%,0.0%)">
 <text style="stroke:none" transform="scale(1,-1) translate(2.6308,0)" text-anchor="middle"  font-size="10"> 
y</text> 
</g>
 </g>
 </g>
 </g>
 </g>
 </g>
 </g>
 </g>
 </g>
                                            </g> 
</svg> 
