<?xml version="1.0" encoding="iso-8859-1" standalone="no"?> 
<?xml-stylesheet href="BNF9.css" type="text/css"?> 
<svg xmlns="http://www.w3.org/2000/svg" xmlns:xlink="http://www.w3.org/1999/xlink" width="240.38412pt" height="207.39859pt" viewBox="-0.2 206.7986 240.38412 207.39859 "> 
<g transform="translate(0, 414.19719 ) scale(1,-1) translate(0,-206.7986 )"> 

<g>
 <g stroke="rgb(0.0%,0.0%,0.0%)">
 <g fill="rgb(0.0%,0.0%,0.0%)">
 <g stroke-width="0.4pt">
 <g>
 </g>
 <g>
 <g>
 <g>
 <g fill="rgb(100.0%,100.0%,100.0%)">
 <path d=" M  0.0 206.9986 L  239.98413 206.9986 L  239.98413 413.9972 L  0.0 413.9972 Z  " style="stroke:none"/>
 </g>
 </g>
 <g>
 <g>
 <g stroke-width="0.4pt">
 <g stroke="rgb(75.0%,75.0%,75.0%)">
 <g fill="rgb(75.0%,75.0%,75.0%)">
 <g stroke-dasharray="none" stroke-dashoffset="0.0pt">
 <g stroke="rgb(89.99939%,89.99939%,89.99939%)">
 <g fill="rgb(89.99939%,89.99939%,89.99939%)">
 <path d=" M  0.0 206.9986 L  0.0 413.9972 M  17.14172 206.9986 L  17.14172 413.9972 M  34.28345 206.9986 L  34.28345 413.9972 M  51.42517 206.9986 L  51.42517 413.9972 M  68.5669 206.9986 L  68.5669 413.9972 M  85.70862 206.9986 L  85.70862 413.9972 M  102.85034 206.9986 L  102.85034 413.9972 M  119.99207 206.9986 L  119.99207 413.9972 M  137.13379 206.9986 L  137.13379 413.9972 M  154.27551 206.9986 L  154.27551 413.9972 M  171.41724 206.9986 L  171.41724 413.9972 M  188.55896 206.9986 L  188.55896 413.9972 M  205.70068 206.9986 L  205.70068 413.9972 M  222.8424 206.9986 L  222.8424 413.9972 M  239.98413 206.9986 L  239.98413 413.9972  " style="fill:none"/>
 </g>
 </g>
 </g>
 </g>
 </g>
 </g>
 </g>
 <g>
 <g stroke-width="0.4pt">
 <g stroke="rgb(75.0%,75.0%,75.0%)">
 <g fill="rgb(75.0%,75.0%,75.0%)">
 <g stroke-dasharray="none" stroke-dashoffset="0.0pt">
 <g stroke="rgb(89.99939%,89.99939%,89.99939%)">
 <g fill="rgb(89.99939%,89.99939%,89.99939%)">
 <path d=" M  17.14172 206.9986 L  17.14172 413.9972 M  51.42517 206.9986 L  51.42517 413.9972 M  85.70862 206.9986 L  85.70862 413.9972 M  154.27551 206.9986 L  154.27551 413.9972 M  188.55896 206.9986 L  188.55896 413.9972 M  222.8424 206.9986 L  222.8424 413.9972  " style="fill:none"/>
 </g>
 </g>
 </g>
 </g>
 </g>
 </g>
 </g>
 </g>
 <g>
 <g>
 <g stroke-width="0.4pt">
 <g stroke="rgb(75.0%,75.0%,75.0%)">
 <g fill="rgb(75.0%,75.0%,75.0%)">
 <g stroke-dasharray="none" stroke-dashoffset="0.0pt">
 <g stroke="rgb(89.99939%,89.99939%,89.99939%)">
 <g fill="rgb(89.99939%,89.99939%,89.99939%)">
 <path d=" M  0.0 206.9986 L  239.98413 206.9986 M  0.0 221.78421 L  239.98413 221.78421 M  0.0 236.56982 L  239.98413 236.56982 M  0.0 251.35544 L  239.98413 251.35544 M  0.0 266.14105 L  239.98413 266.14105 M  0.0 280.92667 L  239.98413 280.92667 M  0.0 295.71228 L  239.98413 295.71228 M  0.0 310.4979 L  239.98413 310.4979 M  0.0 325.28351 L  239.98413 325.28351 M  0.0 340.06912 L  239.98413 340.06912 M  0.0 354.85474 L  239.98413 354.85474 M  0.0 369.64035 L  239.98413 369.64035 M  0.0 384.42596 L  239.98413 384.42596 M  0.0 399.21158 L  239.98413 399.21158 M  0.0 413.9972 L  239.98413 413.9972  " style="fill:none"/>
 </g>
 </g>
 </g>
 </g>
 </g>
 </g>
 </g>
 <g>
 <g stroke-width="0.4pt">
 <g stroke="rgb(75.0%,75.0%,75.0%)">
 <g fill="rgb(75.0%,75.0%,75.0%)">
 <g stroke-dasharray="none" stroke-dashoffset="0.0pt">
 <g stroke="rgb(89.99939%,89.99939%,89.99939%)">
 <g fill="rgb(89.99939%,89.99939%,89.99939%)">
 <path d=" M  0.0 221.78421 L  239.98413 221.78421 M  0.0 251.35544 L  239.98413 251.35544 M  0.0 280.92667 L  239.98413 280.92667 M  0.0 340.06912 L  239.98413 340.06912 M  0.0 369.64035 L  239.98413 369.64035 M  0.0 399.21158 L  239.98413 399.21158  " style="fill:none"/>
 </g>
 </g>
 </g>
 </g>
 </g>
 </g>
 </g>
 </g>
 <g>
 <g>
 <g stroke-width="0.2pt">
 <g stroke="rgb(50.0%,50.0%,50.0%)">
 <g fill="rgb(50.0%,50.0%,50.0%)">
 <path d=" M  0.0 309.07494 L  0.0 311.92085 M  17.14172 309.07494 L  17.14172 311.92085 M  34.28345 309.07494 L  34.28345 311.92085 M  51.42517 309.07494 L  51.42517 311.92085 M  68.5669 309.07494 L  68.5669 311.92085 M  85.70862 309.07494 L  85.70862 311.92085 M  102.85034 309.07494 L  102.85034 311.92085 M  119.99207 309.07494 L  119.99207 311.92085 M  137.13379 309.07494 L  137.13379 311.92085 M  154.27551 309.07494 L  154.27551 311.92085 M  171.41724 309.07494 L  171.41724 311.92085 M  188.55896 309.07494 L  188.55896 311.92085 M  205.70068 309.07494 L  205.70068 311.92085 M  222.8424 309.07494 L  222.8424 311.92085 M  239.98413 309.07494 L  239.98413 311.92085  " style="fill:none"/>
 </g>
 </g>
 </g>
 </g>
 <g>
 <g stroke-width="0.2pt">
 <g stroke="rgb(50.0%,50.0%,50.0%)">
 <g fill="rgb(50.0%,50.0%,50.0%)">
 <path d=" M  17.14172 308.36366 L  17.14172 312.63211 M  51.42517 308.36366 L  51.42517 312.63211 M  85.70862 308.36366 L  85.70862 312.63211 M  154.27551 308.36366 L  154.27551 312.63211 M  188.55896 308.36366 L  188.55896 312.63211 M  222.8424 308.36366 L  222.8424 312.63211  " style="fill:none"/>
 </g>
 </g>
 </g>
 </g>
 </g>
 <g>
 <g>
 <g stroke-width="0.2pt">
 <g stroke="rgb(50.0%,50.0%,50.0%)">
 <g fill="rgb(50.0%,50.0%,50.0%)">
 <path d=" M  118.56932 206.9986 L  121.41481 206.9986 M  118.56932 221.78421 L  121.41481 221.78421 M  118.56932 236.56982 L  121.41481 236.56982 M  118.56932 251.35544 L  121.41481 251.35544 M  118.56932 266.14105 L  121.41481 266.14105 M  118.56932 280.92667 L  121.41481 280.92667 M  118.56932 295.71228 L  121.41481 295.71228 M  118.56932 310.4979 L  121.41481 310.4979 M  118.56932 325.28351 L  121.41481 325.28351 M  118.56932 340.06912 L  121.41481 340.06912 M  118.56932 354.85474 L  121.41481 354.85474 M  118.56932 369.64035 L  121.41481 369.64035 M  118.56932 384.42596 L  121.41481 384.42596 M  118.56932 399.21158 L  121.41481 399.21158 M  118.56932 413.9972 L  121.41481 413.9972  " style="fill:none"/>
 </g>
 </g>
 </g>
 </g>
 <g>
 <g stroke-width="0.2pt">
 <g stroke="rgb(50.0%,50.0%,50.0%)">
 <g fill="rgb(50.0%,50.0%,50.0%)">
 <path d=" M  117.85817 221.78421 L  122.12595 221.78421 M  117.85817 251.35544 L  122.12595 251.35544 M  117.85817 280.92667 L  122.12595 280.92667 M  117.85817 340.06912 L  122.12595 340.06912 M  117.85817 369.64035 L  122.12595 369.64035 M  117.85817 399.21158 L  122.12595 399.21158  " style="fill:none"/>
 </g>
 </g>
 </g>
 </g>
 </g>
 <path d=" M  1.99997 310.4979 L  237.98416 310.4979  " style="fill:none"/>
 <g>
 <g transform="matrix(-1.0,0.0,0.0,-1.0,1.99997,310.4979)">
 <g>
 <path d=" M  1.99997 0.0 L  -1.19998 1.59998 L  0.0 0.0 L  -1.19998 -1.59998  " style="stroke:none"/>
 </g>
  </g>
 </g>
 <g>
 <g transform="matrix(1.0,0.0,0.0,1.0,237.98416,310.4979)">
 <g>
 <path d=" M  1.99997 0.0 L  -1.19998 1.59998 L  0.0 0.0 L  -1.19998 -1.59998  " style="stroke:none"/>
 </g>
  </g>
 </g>
 <path d=" M  119.99207 208.99857 L  119.99207 411.99722  " style="fill:none"/>
 <g>
 <g transform="matrix(0.0,-1.0,1.0,0.0,119.99207,208.99857)">
 <g>
 <path d=" M  1.99997 0.0 L  -1.19998 1.59998 L  0.0 0.0 L  -1.19998 -1.59998  " style="stroke:none"/>
 </g>
  </g>
 </g>
 <g>
 <g transform="matrix(0.0,1.0,-1.0,0.0,119.99207,411.99722)">
 <g>
 <path d=" M  1.99997 0.0 L  -1.19998 1.59998 L  0.0 0.0 L  -1.19998 -1.59998  " style="stroke:none"/>
 </g>
  </g>
 </g>
 <g>
 <g>
 <g transform="matrix(1.0,0.0,0.0,1.0,9.82217,299.67514)">
 <g fill="rgb(0.0%,0.0%,0.0%)">
 <text style="stroke:none" transform="scale(1,-1) translate(7.31955,0)" text-anchor="middle"  font-size="10"> 
&minus; 6</text> 
</g>
 </g>
 </g>
 </g>
 <g>
 <g>
 <g transform="matrix(1.0,0.0,0.0,1.0,44.10562,299.67514)">
 <g fill="rgb(0.0%,0.0%,0.0%)">
 <text style="stroke:none" transform="scale(1,-1) translate(7.31955,0)" text-anchor="middle"  font-size="10"> 
 &minus; 4</text> 
</g>
 </g>
 </g>
 </g>
 <g>
 <g>
 <g transform="matrix(1.0,0.0,0.0,1.0,78.38907,299.67514)">
 <g fill="rgb(0.0%,0.0%,0.0%)">
 <text style="stroke:none" transform="scale(1,-1) translate(7.31955,0)" text-anchor="middle"  font-size="10"> 
 &minus; 2</text> 
</g>
 </g>
 </g>
 </g>
 <g>
 <g>
 <g transform="matrix(1.0,0.0,0.0,1.0,152.15048,299.67514)">
 <g fill="rgb(0.0%,0.0%,0.0%)">
 <text style="stroke:none" transform="scale(1,-1) translate(2.12503,0)" text-anchor="middle"  font-size="10"> 
2</text> 
</g>
 </g>
 </g>
 </g>
 <g>
 <g>
 <g transform="matrix(1.0,0.0,0.0,1.0,186.43393,299.67514)">
 <g fill="rgb(0.0%,0.0%,0.0%)">
 <text style="stroke:none" transform="scale(1,-1) translate(2.12503,0)" text-anchor="middle"  font-size="10"> 
4</text> 
</g>
 </g>
 </g>
 </g>
 <g>
 <g>
 <g transform="matrix(1.0,0.0,0.0,1.0,220.71738,299.67514)">
 <g fill="rgb(0.0%,0.0%,0.0%)">
 <text style="stroke:none" transform="scale(1,-1) translate(2.12503,0)" text-anchor="middle"  font-size="10"> 
6</text> 
</g>
 </g>
 </g>
 </g>
 <g>
 <g>
 <g transform="matrix(1.0,0.0,0.0,1.0,101.58537,219.62312)">
 <g fill="rgb(0.0%,0.0%,0.0%)">
 <text style="stroke:none" transform="scale(1,-1) translate(7.31955,0)" text-anchor="middle"  font-size="10"> 
 &minus; 6</text> 
</g>
 </g>
 </g>
 </g>
 <g>
 <g>
 <g transform="matrix(1.0,0.0,0.0,1.0,101.58537,249.19435)">
 <g fill="rgb(0.0%,0.0%,0.0%)">
 <text style="stroke:none" transform="scale(1,-1) translate(7.31955,0)" text-anchor="middle"  font-size="10"> 
 &minus; 4</text> 
</g>
 </g>
 </g>
 </g>
 <g>
 <g>
 <g transform="matrix(1.0,0.0,0.0,1.0,101.58537,278.76558)">
 <g fill="rgb(0.0%,0.0%,0.0%)">
 <text style="stroke:none" transform="scale(1,-1) translate(7.31955,0)" text-anchor="middle"  font-size="10"> 
 &minus; 2</text> 
</g>
 </g>
 </g>
 </g>
 <g>
 <g>
 <g transform="matrix(1.0,0.0,0.0,1.0,111.97441,337.49135)">
 <g fill="rgb(0.0%,0.0%,0.0%)">
 <text style="stroke:none" transform="scale(1,-1) translate(2.12503,0)" text-anchor="middle"  font-size="10"> 
2</text> 
</g>
 </g>
 </g>
 </g>
 <g>
 <g>
 <g transform="matrix(1.0,0.0,0.0,1.0,111.97441,367.06258)">
 <g fill="rgb(0.0%,0.0%,0.0%)">
 <text style="stroke:none" transform="scale(1,-1) translate(2.12503,0)" text-anchor="middle"  font-size="10"> 
4</text> 
</g>
 </g>
 </g>
 </g>
 <g>
 <g>
 <g transform="matrix(1.0,0.0,0.0,1.0,111.97441,396.6338)">
 <g fill="rgb(0.0%,0.0%,0.0%)">
 <text style="stroke:none" transform="scale(1,-1) translate(2.12503,0)" text-anchor="middle"  font-size="10"> 
6</text> 
</g>
 </g>
 </g>
 </g>
 <clipPath id="pgfcp10"> <path d=" M  0.0 206.9986 L  239.98413 206.9986 L  239.98413 413.9972 L  0.0 413.9972 Z  "/>
</clipPath>
 <g clip-path="url(#pgfcp10)">
 <g>
 <path d=" M  0.0 0.0 C  0.0 0.0 7.22452 18.69455 9.99927 25.87466 C  12.77402 33.05478 17.2238 44.56921 19.99855 51.74933 C  22.7733 58.92944 27.22308 70.44388 29.99783 77.624 C  32.77258 84.80411 37.22237 96.31854 39.99712 103.49866 C  42.77187 110.67877 47.22165 122.19319 49.9964 129.37332 C  52.77115 136.55345 57.22093 148.06793 59.99568 155.24806 C  62.77043 162.42819 67.2202 173.94261 69.99495 181.12273 C  72.7697 188.30284 77.21948 199.81728 79.99423 206.99739 C  82.76898 214.1775 87.21877 225.69194 89.99352 232.87206 C  92.76826 240.05217 97.21805 251.5666 99.9928 258.74672 C  102.76755 265.92683 107.21733 277.44128 109.99208 284.6214 C  112.76683 291.80151 117.21661 303.31596 119.99136 310.49608 C  122.76611 317.6762 127.2159 329.19061 129.99065 336.37074 C  132.7654 343.55087 137.21518 355.06532 139.98993 362.24545 C  142.76468 369.42558 147.21445 380.94002 149.9892 388.12013 C  152.76395 395.30025 157.21373 406.81468 159.98848 413.9948 C  162.76323 421.17491 167.21301 432.68935 169.98776 439.86946 C  172.76251 447.04958 177.2123 458.56401 179.98705 465.74413 C  182.7618 472.92424 187.21158 484.43867 189.98633 491.61879 C  192.76108 498.7989 197.21086 510.31334 199.98561 517.49345 C  202.76036 524.67357 207.21013 536.18802 209.98488 543.36813 C  212.75963 550.54825 217.20941 562.06267 219.98416 569.2428 C  222.75891 576.42293 227.2087 587.9374 229.98344 595.11752 C  232.7582 602.29765 239.98273 620.99219 239.98273 620.99219  " style="fill:none"/>
 <g>
 <g>
 <g transform="matrix(1.0,0.0,0.0,1.0,220.6055,618.74219)">
 <g fill="rgb(0.0%,0.0%,0.0%)">
 <text style="stroke:none" transform="scale(1,-1) translate(19.37723,0)" text-anchor="middle"  font-size="10"> 
y = 3 &lowast; x</text> 
</g>
 </g>
 </g>
 </g>
 </g>
 </g>
 </g>
 <g>
 <g>
 <g transform="matrix(1.0,0.0,0.0,1.0,230.78545,314.09697)">
 <g fill="rgb(0.0%,0.0%,0.0%)">
 <text style="stroke:none" transform="scale(1,-1) translate(2.85764,0)" text-anchor="middle"  font-size="10"> 
x</text> 
</g>
 </g>
 </g>
 </g>
 <g>
 <g>
 <g transform="matrix(1.0,0.0,0.0,1.0,123.54245,406.25317)">
 <g fill="rgb(0.0%,0.0%,0.0%)">
 <text style="stroke:none" transform="scale(1,-1) translate(2.6308,0)" text-anchor="middle"  font-size="10"> 
y</text> 
</g>
 </g>
 </g>
 </g>
 </g>
 </g>
 </g>
 </g>
 </g>
                                                    </g> 
</svg> 
